<?xml version="1.0" encoding="UTF-8"?> <svg xmlns="http://www.w3.org/2000/svg" width="1160" height="1160" viewBox="0 0 1160 1160" fill="none"><g clip-path="url(#clip0_795_23662)"><path d="M560 80H520V120H560V80Z" fill="#F2EFEA"></path><path d="M600 80H560V120H600V80Z" fill="#F2EFEA"></path><path d="M640 80H600V120H640V80Z" fill="#F2EFEA"></path><path d="M440 120H400V160H440V120Z" fill="#F2EFEA"></path><path d="M480 120H440V160H480V120Z" fill="#F2EFEA"></path><path d="M640 120H600V160H640V120Z" fill="#F2EFEA"></path><path d="M440 160H400V200H440V160Z" fill="#F2EFEA"></path><path d="M760 160H720V200H760V160Z" fill="#F2EFEA"></path><path d="M440 200H400V240H440V200Z" fill="#F2EFEA"></path><path d="M480 200H440V240H480V200Z" fill="#F2EFEA"></path><path d="M560 200H520V240H560V200Z" fill="#F2EFEA"></path><path d="M640 200H600V240H640V200Z" fill="#F2EFEA"></path><path d="M720 200H680V240H720V200Z" fill="#F2EFEA"></path><path d="M760 200H720V240H760V200Z" fill="#F2EFEA"></path><path d="M480 240H440V280H480V240Z" fill="#F2EFEA"></path><path d="M600 240H560V280H600V240Z" fill="#F2EFEA"></path><path d="M680 240H640V280H680V240Z" fill="#F2EFEA"></path><path d="M480 280H440V320H480V280Z" fill="#F2EFEA"></path><path d="M600 280H560V320H600V280Z" fill="#F2EFEA"></path><path d="M680 280H640V320H680V280Z" fill="#F2EFEA"></path><path d="M760 280H720V320H760V280Z" fill="#F2EFEA"></path><path d="M440 320H400V360H440V320Z" fill="#F2EFEA"></path><path d="M520 320H480V360H520V320Z" fill="#F2EFEA"></path><path d="M600 320H560V360H600V320Z" fill="#F2EFEA"></path><path d="M680 320H640V360H680V320Z" fill="#F2EFEA"></path><path d="M760 320H720V360H760V320Z" fill="#F2EFEA"></path><path d="M440 360H400V400H440V360Z" fill="#F2EFEA"></path><path d="M480 360H440V400H480V360Z" fill="#F2EFEA"></path><path d="M680 360H640V400H680V360Z" fill="#F2EFEA"></path><path d="M760 360H720V400H760V360Z" fill="#F2EFEA"></path><path d="M120 400H80V440H120V400Z" fill="#F2EFEA"></path><path d="M360 400H320V440H360V400Z" fill="#F2EFEA"></path><path d="M440 400H400V440H440V400Z" fill="#F2EFEA"></path><path d="M480 400H440V440H480V400Z" fill="#F2EFEA"></path><path d="M520 400H480V440H520V400Z" fill="#F2EFEA"></path><path d="M560 400H520V440H560V400Z" fill="#F2EFEA"></path><path d="M600 400H560V440H600V400Z" fill="#F2EFEA"></path><path d="M720 400H680V440H720V400Z" fill="#F2EFEA"></path><path d="M800 400H760V440H800V400Z" fill="#F2EFEA"></path><path d="M840 400H800V440H840V400Z" fill="#F2EFEA"></path><path d="M960 400H920V440H960V400Z" fill="#F2EFEA"></path><path d="M1000 400H960V440H1000V400Z" fill="#F2EFEA"></path><path d="M1040 400H1000V440H1040V400Z" fill="#F2EFEA"></path><path d="M120 440H80V480H120V440Z" fill="#F2EFEA"></path><path d="M200 440H160V480H200V440Z" fill="#F2EFEA"></path><path d="M240 440H200V480H240V440Z" fill="#F2EFEA"></path><path d="M320 440H280V480H320V440Z" fill="#F2EFEA"></path><path d="M400 440H360V480H400V440Z" fill="#F2EFEA"></path><path d="M480 440H440V480H480V440Z" fill="#F2EFEA"></path><path d="M640 440H600V480H640V440Z" fill="#F2EFEA"></path><path d="M680 440H640V480H680V440Z" fill="#F2EFEA"></path><path d="M720 440H680V480H720V440Z" fill="#F2EFEA"></path><path d="M920 440H880V480H920V440Z" fill="#F2EFEA"></path><path d="M960 440H920V480H960V440Z" fill="#F2EFEA"></path><path d="M1000 440H960V480H1000V440Z" fill="#F2EFEA"></path><path d="M1040 440H1000V480H1040V440Z" fill="#F2EFEA"></path><path d="M120 480H80V520H120V480Z" fill="#F2EFEA"></path><path d="M160 480H120V520H160V480Z" fill="#F2EFEA"></path><path d="M200 480H160V520H200V480Z" fill="#F2EFEA"></path><path d="M360 480H320V520H360V480Z" fill="#F2EFEA"></path><path d="M440 480H400V520H440V480Z" fill="#F2EFEA"></path><path d="M480 480H440V520H480V480Z" fill="#F2EFEA"></path><path d="M520 480H480V520H520V480Z" fill="#F2EFEA"></path><path d="M600 480H560V520H600V480Z" fill="#F2EFEA"></path><path d="M640 480H600V520H640V480Z" fill="#F2EFEA"></path><path d="M680 480H640V520H680V480Z" fill="#F2EFEA"></path><path d="M720 480H680V520H720V480Z" fill="#F2EFEA"></path><path d="M800 480H760V520H800V480Z" fill="#F2EFEA"></path><path d="M880 480H840V520H880V480Z" fill="#F2EFEA"></path><path d="M960 480H920V520H960V480Z" fill="#F2EFEA"></path><path d="M1040 480H1000V520H1040V480Z" fill="#F2EFEA"></path><path d="M1080 480H1040V520H1080V480Z" fill="#F2EFEA"></path><path d="M240 520H200V560H240V520Z" fill="#F2EFEA"></path><path d="M320 520H280V560H320V520Z" fill="#F2EFEA"></path><path d="M600 520H560V560H600V520Z" fill="#F2EFEA"></path><path d="M640 520H600V560H640V520Z" fill="#F2EFEA"></path><path d="M760 520H720V560H760V520Z" fill="#F2EFEA"></path><path d="M800 520H760V560H800V520Z" fill="#F2EFEA"></path><path d="M840 520H800V560H840V520Z" fill="#F2EFEA"></path><path d="M880 520H840V560H880V520Z" fill="#F2EFEA"></path><path d="M920 520H880V560H920V520Z" fill="#F2EFEA"></path><path d="M960 520H920V560H960V520Z" fill="#F2EFEA"></path><path d="M1080 520H1040V560H1080V520Z" fill="#F2EFEA"></path><path d="M200 560H160V600H200V560Z" fill="#F2EFEA"></path><path d="M240 560H200V600H240V560Z" fill="#F2EFEA"></path><path d="M280 560H240V600H280V560Z" fill="#F2EFEA"></path><path d="M320 560H280V600H320V560Z" fill="#F2EFEA"></path><path d="M360 560H320V600H360V560Z" fill="#F2EFEA"></path><path d="M440 560H400V600H440V560Z" fill="#F2EFEA"></path><path d="M480 560H440V600H480V560Z" fill="#F2EFEA"></path><path d="M600 560H560V600H600V560Z" fill="#F2EFEA"></path><path d="M640 560H600V600H640V560Z" fill="#F2EFEA"></path><path d="M720 560H680V600H720V560Z" fill="#F2EFEA"></path><path d="M840 560H800V600H840V560Z" fill="#F2EFEA"></path><path d="M880 560H840V600H880V560Z" fill="#F2EFEA"></path><path d="M1080 560H1040V600H1080V560Z" fill="#F2EFEA"></path><path d="M120 600H80V640H120V600Z" fill="#F2EFEA"></path><path d="M160 600H120V640H160V600Z" fill="#F2EFEA"></path><path d="M240 600H200V640H240V600Z" fill="#F2EFEA"></path><path d="M280 600H240V640H280V600Z" fill="#F2EFEA"></path><path d="M320 600H280V640H320V600Z" fill="#F2EFEA"></path><path d="M440 600H400V640H440V600Z" fill="#F2EFEA"></path><path d="M480 600H440V640H480V600Z" fill="#F2EFEA"></path><path d="M520 600H480V640H520V600Z" fill="#F2EFEA"></path><path d="M720 600H680V640H720V600Z" fill="#F2EFEA"></path><path d="M760 600H720V640H760V600Z" fill="#F2EFEA"></path><path d="M880 600H840V640H880V600Z" fill="#F2EFEA"></path><path d="M1040 600H1000V640H1040V600Z" fill="#F2EFEA"></path><path d="M120 640H80V680H120V640Z" fill="#F2EFEA"></path><path d="M200 640H160V680H200V640Z" fill="#F2EFEA"></path><path d="M360 640H320V680H360V640Z" fill="#F2EFEA"></path><path d="M560 640H520V680H560V640Z" fill="#F2EFEA"></path><path d="M600 640H560V680H600V640Z" fill="#F2EFEA"></path><path d="M720 640H680V680H720V640Z" fill="#F2EFEA"></path><path d="M760 640H720V680H760V640Z" fill="#F2EFEA"></path><path d="M880 640H840V680H880V640Z" fill="#F2EFEA"></path><path d="M920 640H880V680H920V640Z" fill="#F2EFEA"></path><path d="M960 640H920V680H960V640Z" fill="#F2EFEA"></path><path d="M1040 640H1000V680H1040V640Z" fill="#F2EFEA"></path><path d="M1080 640H1040V680H1080V640Z" fill="#F2EFEA"></path><path d="M120 680H80V720H120V680Z" fill="#F2EFEA"></path><path d="M200 680H160V720H200V680Z" fill="#F2EFEA"></path><path d="M240 680H200V720H240V680Z" fill="#F2EFEA"></path><path d="M280 680H240V720H280V680Z" fill="#F2EFEA"></path><path d="M400 680H360V720H400V680Z" fill="#F2EFEA"></path><path d="M440 680H400V720H440V680Z" fill="#F2EFEA"></path><path d="M520 680H480V720H520V680Z" fill="#F2EFEA"></path><path d="M560 680H520V720H560V680Z" fill="#F2EFEA"></path><path d="M760 680H720V720H760V680Z" fill="#F2EFEA"></path><path d="M800 680H760V720H800V680Z" fill="#F2EFEA"></path><path d="M840 680H800V720H840V680Z" fill="#F2EFEA"></path><path d="M880 680H840V720H880V680Z" fill="#F2EFEA"></path><path d="M960 680H920V720H960V680Z" fill="#F2EFEA"></path><path d="M1000 680H960V720H1000V680Z" fill="#F2EFEA"></path><path d="M1080 680H1040V720H1080V680Z" fill="#F2EFEA"></path><path d="M120 720H80V760H120V720Z" fill="#F2EFEA"></path><path d="M240 720H200V760H240V720Z" fill="#F2EFEA"></path><path d="M320 720H280V760H320V720Z" fill="#F2EFEA"></path><path d="M360 720H320V760H360V720Z" fill="#F2EFEA"></path><path d="M520 720H480V760H520V720Z" fill="#F2EFEA"></path><path d="M560 720H520V760H560V720Z" fill="#F2EFEA"></path><path d="M760 720H720V760H760V720Z" fill="#F2EFEA"></path><path d="M800 720H760V760H800V720Z" fill="#F2EFEA"></path><path d="M840 720H800V760H840V720Z" fill="#F2EFEA"></path><path d="M880 720H840V760H880V720Z" fill="#F2EFEA"></path><path d="M920 720H880V760H920V720Z" fill="#F2EFEA"></path><path d="M1000 720H960V760H1000V720Z" fill="#F2EFEA"></path><path d="M440 760H400V800H440V760Z" fill="#F2EFEA"></path><path d="M600 760H560V800H600V760Z" fill="#F2EFEA"></path><path d="M640 760H600V800H640V760Z" fill="#F2EFEA"></path><path d="M680 760H640V800H680V760Z" fill="#F2EFEA"></path><path d="M760 760H720V800H760V760Z" fill="#F2EFEA"></path><path d="M920 760H880V800H920V760Z" fill="#F2EFEA"></path><path d="M480 800H440V840H480V800Z" fill="#F2EFEA"></path><path d="M520 800H480V840H520V800Z" fill="#F2EFEA"></path><path d="M560 800H520V840H560V800Z" fill="#F2EFEA"></path><path d="M760 800H720V840H760V800Z" fill="#F2EFEA"></path><path d="M840 800H800V840H840V800Z" fill="#F2EFEA"></path><path d="M920 800H880V840H920V800Z" fill="#F2EFEA"></path><path d="M1080 800H1040V840H1080V800Z" fill="#F2EFEA"></path><path d="M480 840H440V880H480V840Z" fill="#F2EFEA"></path><path d="M520 840H480V880H520V840Z" fill="#F2EFEA"></path><path d="M600 840H560V880H600V840Z" fill="#F2EFEA"></path><path d="M640 840H600V880H640V840Z" fill="#F2EFEA"></path><path d="M720 840H680V880H720V840Z" fill="#F2EFEA"></path><path d="M760 840H720V880H760V840Z" fill="#F2EFEA"></path><path d="M920 840H880V880H920V840Z" fill="#F2EFEA"></path><path d="M1040 840H1000V880H1040V840Z" fill="#F2EFEA"></path><path d="M600 880H560V920H600V880Z" fill="#F2EFEA"></path><path d="M680 880H640V920H680V880Z" fill="#F2EFEA"></path><path d="M720 880H680V920H720V880Z" fill="#F2EFEA"></path><path d="M760 880H720V920H760V880Z" fill="#F2EFEA"></path><path d="M800 880H760V920H800V880Z" fill="#F2EFEA"></path><path d="M840 880H800V920H840V880Z" fill="#F2EFEA"></path><path d="M880 880H840V920H880V880Z" fill="#F2EFEA"></path><path d="M920 880H880V920H920V880Z" fill="#F2EFEA"></path><path d="M1000 880H960V920H1000V880Z" fill="#F2EFEA"></path><path d="M1080 880H1040V920H1080V880Z" fill="#F2EFEA"></path><path d="M480 920H440V960H480V920Z" fill="#F2EFEA"></path><path d="M520 920H480V960H520V920Z" fill="#F2EFEA"></path><path d="M680 920H640V960H680V920Z" fill="#F2EFEA"></path><path d="M800 920H760V960H800V920Z" fill="#F2EFEA"></path><path d="M840 920H800V960H840V920Z" fill="#F2EFEA"></path><path d="M1040 920H1000V960H1040V920Z" fill="#F2EFEA"></path><path d="M1080 920H1040V960H1080V920Z" fill="#F2EFEA"></path><path d="M520 960H480V1000H520V960Z" fill="#F2EFEA"></path><path d="M560 960H520V1000H560V960Z" fill="#F2EFEA"></path><path d="M600 960H560V1000H600V960Z" fill="#F2EFEA"></path><path d="M960 960H920V1000H960V960Z" fill="#F2EFEA"></path><path d="M1000 960H960V1000H1000V960Z" fill="#F2EFEA"></path><path d="M1080 960H1040V1000H1080V960Z" fill="#F2EFEA"></path><path d="M520 1000H480V1040H520V1000Z" fill="#F2EFEA"></path><path d="M560 1000H520V1040H560V1000Z" fill="#F2EFEA"></path><path d="M680 1000H640V1040H680V1000Z" fill="#F2EFEA"></path><path d="M720 1000H680V1040H720V1000Z" fill="#F2EFEA"></path><path d="M760 1000H720V1040H760V1000Z" fill="#F2EFEA"></path><path d="M800 1000H760V1040H800V1000Z" fill="#F2EFEA"></path><path d="M880 1000H840V1040H880V1000Z" fill="#F2EFEA"></path><path d="M920 1000H880V1040H920V1000Z" fill="#F2EFEA"></path><path d="M1080 1000H1040V1040H1080V1000Z" fill="#F2EFEA"></path><path d="M440 1040H400V1080H440V1040Z" fill="#F2EFEA"></path><path d="M480 1040H440V1080H480V1040Z" fill="#F2EFEA"></path><path d="M640 1040H600V1080H640V1040Z" fill="#F2EFEA"></path><path d="M680 1040H640V1080H680V1040Z" fill="#F2EFEA"></path><path d="M760 1040H720V1080H760V1040Z" fill="#F2EFEA"></path><path d="M800 1040H760V1080H800V1040Z" fill="#F2EFEA"></path><path d="M960 1040H920V1080H960V1040Z" fill="#F2EFEA"></path><path d="M1080 1040H1040V1080H1080V1040Z" fill="#F2EFEA"></path><path d="M318 80H122H80V122V318V360H122H318H360V318V122V80H318ZM318 318H122V122H318V318Z" fill="#F2EFEA"></path><path d="M1038 80H842H800V122V318V360H842H1038H1080V318V122V80H1038ZM1038 318H842V122H1038V318Z" fill="#F2EFEA"></path><path d="M318 800H122H80V842V1038V1080H122H318H360V1038V842V800H318ZM318 1038H122V842H318V1038Z" fill="#F2EFEA"></path><path d="M280 160H160V280H280V160Z" fill="#F2EFEA"></path><path d="M1000 160H880V280H1000V160Z" fill="#F2EFEA"></path><path d="M280 880H160V1000H280V880Z" fill="#F2EFEA"></path></g><defs><clipPath id="clip0_795_23662"><rect width="1160" height="1160" fill="white"></rect></clipPath></defs></svg> 